<?xml version="1.0" encoding="utf-8"?>
<!-- Generator: Adobe Illustrator 16.0.0, SVG Export Plug-In . SVG Version: 6.00 Build 0)  -->
<!DOCTYPE svg PUBLIC "-//W3C//DTD SVG 1.1//EN" "http://www.w3.org/Graphics/SVG/1.1/DTD/svg11.dtd">
<svg version="1.1" id="Calque_1" xmlns="http://www.w3.org/2000/svg" xmlns:xlink="http://www.w3.org/1999/xlink" x="0px" y="0px"
	 width="110px" height="165px" viewBox="0 0 110 165" enable-background="new 0 0 110 165" xml:space="preserve">
<g>
	<path fill="#4CA434" d="M54.844,164.918l-0.474-0.378c-0.11-0.082-11.046-8.72-27.558-21.352l-0.075-0.062
		C0.025,121.654,0.028,109.338,0.029,103.421v-78.17l4.542,0.003c0.16,0,13.869,0.012,24.62,0.012
		c15.538,0,21.293-8.088,21.653-8.613l4.283-7.188l3.557,7.477c0.363,0.6,5.363,8.336,21.479,8.336h29.524v78.044
		c0.01,11.858-9.476,26.001-26.702,39.824l-0.074,0.059c-15.229,11.655-24.468,18.845-26.167,20.162l-0.113,0.093
		c-0.006,0.006-0.016,0.012-0.021,0.018L54.844,164.918z M1.542,26.767v76.654c-0.003,5.685-0.007,17.507,26.136,38.522l0.062,0.051
		c14.573,11.149,24.809,19.192,27.09,20.982l1.044-0.844c1.833-1.433,11.041-8.59,26.112-20.125l0.062-0.046
		c16.851-13.528,26.134-27.249,26.134-38.642V26.788H80.164c-16.975,0-22.255-8.175-22.799-9.107l-0.031-0.062l-2.354-4.951
		l-2.871,4.81c-0.629,0.95-6.68,9.3-22.917,9.3c-10.751,0-24.459-0.009-24.62-0.009L1.542,26.767z"/>
	<path fill="#4CAD48" d="M54.855,159.059c0,0-2.726,1.991,25.291-19.455c25.134-20.164,25.01-33.71,25.01-36.286V29.814H80.164
		c-19.844,0-25.485-10.738-25.485-10.738s-6.7,10.729-25.489,10.729c-10.817,0-24.624-0.013-24.624-0.013v73.502
		c0,5.154-0.213,16.019,25.004,36.287C57.588,161.029,54.855,159.059,54.855,159.059"/>
	<path fill="#FFFFFF" d="M45.116,55.686c0,1.055-0.355,1.958-1.069,2.702c-0.711,0.743-1.599,1.118-2.653,1.118H15.854
		c-1.08,0-1.972-0.362-2.671-1.086c-0.7-0.721-1.052-1.635-1.052-2.734V35.902h6.701v17.191c0,1.575,0.818,2.364,2.459,2.364h14.633
		c0.712,0,1.294-0.215,1.747-0.647c0.455-0.432,0.681-1.005,0.681-1.717V35.902h6.765V55.686z"/>
	<path fill="#FFFFFF" d="M75.608,55.456v4.05H50.591V35.902h6.762v17.484c0,0.666,0.16,1.182,0.484,1.534
		c0.322,0.361,0.852,0.535,1.586,0.535H75.608z"/>
	<path fill="#FFFFFF" d="M100.989,40.178h-9.486c-1.463,0-2.201,0.605-2.201,1.811v17.518h-6.509V41.988
		c0-1.205-0.677-1.811-2.036-1.811h-9.549v-4.275h29.781V40.178z"/>
	<path fill="#FFFFFF" d="M11.776,70.206c0,0,11.868,9.133,15.629,16.512c0,0,4.729,6.045,4.415,20.278
		c-0.314,14.236,4.778,26.035,13.699,30.464c8.919,4.431,26.172,3.094,33.715-12.535c0.235-0.059,4.77-0.145,7.558-1.262
		c0,0-11.514,25.835-41.003,17.768c-16.876-4.895-18.593-23.88-16.318-35.17c0,0,1.379-11.97-7.245-20.478
		c-2.815-2.811-6.174-3.008-7.185-8.38C14.503,74.167,13.781,72.53,11.776,70.206"/>
	<path fill="#D0E2C2" d="M68.132,132.961c0,0-3.971,3.923-10.81,4.148c-14.941,0.563-18.145-13.322-18.421-15.933
		c-0.279-2.611-1.674-15.937,14.815-20.481c-0.756-0.711-5.998-5.295-12.18,5.132c-0.489-1.456-0.305-9.51,9.831-10.516
		c4.463-0.197,7.976,3.933,8.928,5.39c0.8,0.501,3.264,2.059,4.128,2.575c0,0-0.644,1.325-1.245,2.235
		c-12.335-5.108-21.628,6.071-20.615,15.277c0.79,5.497,4.388,11.255,11.658,12.869C61.494,135.273,63.493,134.409,68.132,132.961"
		/>
	<path fill="#A1C680" d="M63.573,88.208c0,0-0.275,0.625-0.9,1.619c-15.657-4.395-24.88,6.629-22.811,15.897
		c2.07,9.264,10.417,15.177,23.711,4.938c-8.083,12.215-23.264,11.498-27.217-3.143c0,0-5.413-17.672,15.986-22.362
		c-2.781-2.068-8.397-4.778-14.595,7.082c-1.2-4.938,2.562-12.561,10.287-12.745c5.479-0.086,10.599,5.663,10.599,5.663
		L63.573,88.208z"/>
	<path fill="#FFFFFF" d="M54.719,92.258c0,1.322,1.071,2.394,2.396,2.394c1.321,0,2.394-1.071,2.394-2.394
		c0-1.324-1.072-2.396-2.394-2.396C55.79,89.862,54.719,90.934,54.719,92.258"/>
	<path fill="#FFFFFF" d="M72.449,125.657c0,1.328,1.07,2.396,2.393,2.396c1.325,0,2.397-1.067,2.397-2.396
		c0-1.321-1.072-2.392-2.397-2.392C73.52,123.266,72.449,124.336,72.449,125.657"/>
	<path fill="#FFFFFF" d="M68.506,130.18c0,1.321,1.07,2.396,2.396,2.396c1.32,0,2.393-1.074,2.393-2.396
		c0-1.324-1.072-2.396-2.393-2.396C69.576,127.784,68.506,128.855,68.506,130.18"/>
	<rect x="4.008" y="63.414" fill="#FFFFFF" width="103.887" height="2.758"/>
	<path fill="#4CAD48" d="M10.244,12.23c0,0.362-0.094,0.701-0.286,1.017c-0.191,0.321-0.42,0.479-0.687,0.479H0.537V4.714h8.613
		c0.327,0,0.592,0.134,0.795,0.399c0.201,0.269,0.3,0.609,0.3,1.021V12.23z M8.187,11.424V6.939c0-0.488-0.211-0.729-0.625-0.729
		H2.597v5.959h4.974C7.98,12.169,8.187,11.92,8.187,11.424"/>
	<path fill="#4CAD48" d="M19.01,13.726h-7.298V6.06h7.298v1.312h-4.965c-0.228,0-0.384,0.087-0.463,0.26
		c-0.055,0.124-0.079,0.332-0.079,0.631c0,0.336,0.021,0.563,0.068,0.679c0.076,0.181,0.233,0.272,0.474,0.272h4.553v1.296h-4.553
		c-0.228,0-0.384,0.088-0.463,0.264c-0.055,0.113-0.079,0.319-0.079,0.617c0,0.361,0.017,0.601,0.059,0.715
		c0.066,0.205,0.227,0.31,0.483,0.31h4.965V13.726z"/>
	<path fill="#4CAD48" d="M28.356,9.398c0,0.355-0.092,0.65-0.275,0.887c-0.186,0.232-0.422,0.351-0.708,0.351h-5.174
		c-0.185,0-0.275,0.113-0.275,0.336v2.755h-1.777V6.062h7.227c0.287,0,0.522,0.119,0.708,0.355c0.183,0.242,0.275,0.536,0.275,0.892
		V9.398z M26.607,7.99c0-0.42-0.174-0.633-0.523-0.633h-3.886c-0.185,0-0.275,0.114-0.275,0.34v1.305
		c0,0.223,0.091,0.338,0.275,0.338h3.886c0.349,0,0.523-0.215,0.523-0.631V7.99z"/>
	<path fill="#4CAD48" d="M38.046,12.491c0,0.346-0.095,0.639-0.283,0.876c-0.187,0.239-0.419,0.358-0.702,0.358h-6.734
		c-0.288,0-0.523-0.117-0.709-0.354c-0.186-0.232-0.278-0.529-0.278-0.88V6.06h1.771v5.589c0,0.509,0.216,0.766,0.643,0.766h3.862
		c0.195,0,0.349-0.069,0.472-0.209c0.119-0.141,0.18-0.324,0.18-0.557V6.06h1.779V12.491z"/>
	<rect x="39.251" y="6.06" fill="#4CAD48" width="1.771" height="7.666"/>
	<path fill="#4CAD48" d="M50.169,12.491c0,0.351-0.095,0.647-0.287,0.88c-0.191,0.237-0.431,0.354-0.721,0.354h-5.887
		c-0.665,0-0.995-0.526-0.987-1.582v-0.271h1.759c0,0.157,0.054,0.3,0.162,0.438c0.105,0.136,0.224,0.207,0.35,0.207h3.188
		c0.303,0,0.495-0.129,0.58-0.384c0.049-0.133,0.069-0.419,0.069-0.854c0-0.233-0.055-0.421-0.179-0.565
		c-0.117-0.142-0.279-0.214-0.47-0.214h-4.535c-0.288,0-0.523-0.121-0.706-0.367c-0.186-0.242-0.278-0.538-0.278-0.896v-1.94
		c0-0.354,0.092-0.651,0.278-0.879c0.183-0.239,0.418-0.357,0.706-0.357h5.902c0.662,0,0.991,0.527,0.981,1.58v0.276h-1.745
		c0-0.158-0.056-0.303-0.164-0.441c-0.106-0.134-0.223-0.201-0.351-0.201h-3.184c-0.303,0-0.498,0.12-0.584,0.374
		c-0.048,0.139-0.073,0.426-0.073,0.856c0,0.23,0.061,0.418,0.182,0.562c0.121,0.141,0.28,0.21,0.476,0.21h4.531
		c0.281,0,0.515,0.119,0.704,0.358c0.187,0.241,0.282,0.533,0.282,0.875V12.491z"/>
	<path fill="#4CAD48" d="M62.518,13.726H60.21V7.005c0-0.348-0.054-0.575-0.15-0.686c-0.076-0.081-0.209-0.13-0.401-0.138h-0.214
		c-0.09,0-0.166-0.004-0.237-0.017c0.439-0.881,0.682-1.362,0.728-1.44c0.083-0.144,0.194-0.213,0.329-0.213L62.518,4.5V13.726z"/>
	<path fill="#4CAD48" d="M65.003,9.417c-0.253-0.293-0.374-0.646-0.374-1.058V5.992c0-0.415,0.121-0.765,0.374-1.057
		C65.252,4.647,65.569,4.5,65.947,4.5h7.484c0.383,0,0.702,0.139,0.953,0.423c0.244,0.282,0.368,0.64,0.368,1.069v6.253
		c0,0.43-0.124,0.781-0.368,1.064c-0.251,0.279-0.57,0.417-0.953,0.417h-7.391c-0.867,0-1.311-0.627-1.333-1.887l-0.015-0.492h2.097
		c0,0.6,0.275,0.897,0.824,0.897h3.995c0.394,0,0.651-0.146,0.764-0.442c0.067-0.168,0.103-0.511,0.103-1.024
		c0-0.279-0.081-0.503-0.245-0.672c-0.165-0.168-0.372-0.254-0.621-0.254h-5.662C65.569,9.853,65.252,9.707,65.003,9.417
		 M66.915,7.474c0,0.278,0.078,0.503,0.235,0.669c0.154,0.173,0.363,0.255,0.62,0.255h3.839c0.577,0,0.866-0.306,0.866-0.924V6.876
		c0-0.286-0.079-0.513-0.239-0.681c-0.159-0.169-0.368-0.255-0.627-0.255h-3.839c-0.569,0-0.855,0.313-0.855,0.936V7.474z"/>
	<path fill="#4CAD48" d="M86.598,4.701v1.494c0,0.134-0.043,0.261-0.137,0.379l-5.622,7.034h-0.023c0,0.011-0.019,0.054-0.057,0.118
		h-2.683l5.344-6.392c0.145-0.177,0.221-0.369,0.221-0.571c0-0.456-0.253-0.681-0.767-0.681h-5.611V4.5h9.158
		C86.555,4.5,86.619,4.566,86.598,4.701"/>
	<path fill="#4CAD48" d="M97.367,9.437c0.277,0.251,0.442,0.406,0.49,0.47c0.173,0.243,0.256,0.541,0.256,0.894v1.435
		c0,0.421-0.121,0.774-0.372,1.062c-0.253,0.287-0.563,0.431-0.935,0.431h-7.266c-0.392,0-0.705-0.143-0.955-0.423
		c-0.245-0.284-0.369-0.639-0.369-1.069v-0.851v-0.015v-0.251h2.145c0,0.127,0.006,0.249,0.025,0.366
		c0.125,0.363,0.385,0.546,0.771,0.546h3.894c0.368,0,0.607-0.127,0.72-0.379c0.08-0.177,0.124-0.491,0.124-0.937
		c0-0.287-0.079-0.514-0.23-0.685c-0.158-0.167-0.361-0.255-0.613-0.255h-4.109v-1.48h3.977c0.348,0,0.587-0.124,0.712-0.377
		c0.096-0.179,0.141-0.486,0.141-0.925c0-0.289-0.078-0.513-0.233-0.68c-0.154-0.161-0.362-0.243-0.619-0.243h-3.761
		c-0.55,0-0.819,0.263-0.819,0.797H88.24c0.009-0.296,0.012-0.462,0.012-0.493c0.026-1.25,0.473-1.874,1.33-1.874h6.979
		c0.369,0,0.683,0.14,0.928,0.429c0.253,0.285,0.378,0.643,0.378,1.063v1.18c0,0.291-0.131,0.621-0.382,0.977
		c-0.256,0.361-0.38,0.621-0.38,0.782C97.104,9.099,97.19,9.267,97.367,9.437"/>
	<path fill="#4CAD48" d="M105.167,0.082c2.613,0,4.804,2.062,4.804,4.763c0,2.757-2.19,4.817-4.804,4.817
		c-2.625,0-4.829-2.061-4.829-4.817C100.338,2.144,102.542,0.082,105.167,0.082 M105.167,8.96c2.217,0,3.937-1.768,3.937-4.115
		c0-2.289-1.72-4.058-3.937-4.058c-2.242,0-3.959,1.769-3.959,4.058C101.208,7.192,102.925,8.96,105.167,8.96 M103.298,2.067h2.164
		c1.33,0,1.955,0.526,1.955,1.603c0,1.011-0.633,1.435-1.468,1.522l1.601,2.472h-0.935l-1.524-2.404h-0.922v2.404h-0.871V2.067z
		 M104.169,4.554h0.909c0.768,0,1.473-0.037,1.473-0.919c0-0.748-0.638-0.862-1.228-0.862h-1.154V4.554z"/>
</g>
</svg>
